<svg xmlns="http://www.w3.org/2000/svg">
  <symbol id="social-behance" width="40.000000" height="40.000000" viewBox="0 0 40 40" xmlns="http://www.w3.org/2000/svg" xmlns:xlink="http://www.w3.org/1999/xlink">
	  <path d="M20.0866 26.0234C20.3887 25.458 20.5398 24.8008 20.5398 24.0518L20.54 24.0518C20.54 22.8877 20.2413 21.9189 19.6456 21.1445C19.0492 20.3721 18.2393 19.835 17.2149 19.5352C18.0546 19.1699 18.6922 18.6084 19.1293 17.8516C19.5655 17.0947 19.7838 16.2832 19.7838 15.4189C19.7838 14.8701 19.6874 14.3252 19.4945 13.7842C19.3012 13.2441 19.0285 12.7617 18.6758 12.3369C18.3233 11.9131 17.895 11.5684 17.3914 11.3018C16.8877 11.0352 16.3249 10.9023 15.7036 10.9023L6.13281 10.9023L6.13281 28.6182L14.7719 28.6182C15.5607 28.6182 16.304 28.5186 17.0009 28.3184C17.6974 28.1191 18.3105 27.8281 18.8394 27.4453C19.3686 27.0635 19.7838 26.5889 20.0866 26.0234ZM32.3227 11.7432L23.7657 11.7432L23.7657 13.8467L32.3227 13.8467L32.3227 11.7432ZM9.60855 18.3135L9.60855 13.8467L14.3939 13.8467C14.9481 13.8467 15.4141 14.0469 15.7916 14.4453C16.1697 14.8447 16.3585 15.3691 16.3585 16.0674C16.3585 16.7666 16.1525 17.3154 15.7415 17.7139C15.33 18.1133 14.8306 18.3135 14.243 18.3135L9.60855 18.3135ZM28.0683 28.6182C27.0435 28.6182 26.1164 28.4443 25.2863 28.0986C23.6425 27.4053 22.4832 26.2402 21.8088 24.6045C21.4915 23.8154 21.333 22.9854 21.333 22.1143C21.333 21.2441 21.4875 20.3623 21.7967 19.5635C22.4592 17.9072 23.6184 16.7266 25.2742 16.0215C26.1121 15.668 27.0516 15.4902 28.0929 15.4902C29.1343 15.4902 30.0654 15.668 30.887 16.0215C33.5879 17.1885 34.8601 19.7812 34.743 22.5986C34.7346 22.791 34.7141 22.9531 34.682 23.082L24.798 23.082C24.8467 23.5811 24.9687 24.0244 25.1642 24.4111C25.3594 24.7979 25.6114 25.1289 25.9207 25.4023C26.2296 25.6768 26.5795 25.8867 26.9702 26.0312C27.3606 26.1758 27.7668 26.249 28.1905 26.249C28.8407 26.249 29.4551 26.0918 30.0327 25.7773C30.6104 25.4629 31.0051 25.0488 31.2164 24.5322L34.0228 25.3057C33.5509 26.2734 32.7987 27.0674 31.7655 27.6875C30.7324 28.3086 29.4998 28.6182 28.0683 28.6182L28.0683 28.6182ZM30.326 18.6943C30.9523 19.2656 31.3061 20.0273 31.3878 20.9785L24.7497 20.9785C24.782 20.5117 24.8916 20.084 25.0789 19.6973C25.266 19.3105 25.506 18.9805 25.7989 18.7061C26.0917 18.4316 26.4291 18.2188 26.8117 18.0654C27.1941 17.9121 27.605 17.8359 28.0443 17.8359C28.9388 17.8359 29.6994 18.1221 30.326 18.6943ZM16.8748 22.4922C16.9839 22.7832 17.0386 23.0869 17.0386 23.4033L17.0388 23.4033C17.0388 23.7197 16.9799 24.0186 16.8627 24.3018C16.745 24.584 16.5857 24.8301 16.3841 25.0371C16.1824 25.2451 15.9433 25.4082 15.6661 25.5244C15.3891 25.6406 15.0908 25.6982 14.7719 25.6982L9.60855 25.6982L9.60855 21.0332L14.9481 21.0332C15.2505 21.0332 15.5275 21.0957 15.7793 21.2197C16.0313 21.3447 16.2494 21.5156 16.4342 21.7314C16.6185 21.9482 16.7657 22.2021 16.8748 22.4922Z" clip-rule="evenodd" fill-rule="evenodd"/>
  </symbol>

  <symbol id="social-twitter" width="40.000000" height="40.000000" fill-rule="evenodd" clip-rule="evenodd" viewBox="0 0 40 40" xmlns="http://www.w3.org/2000/svg" xmlns:xlink="http://www.w3.org/1999/xlink">
	  <path  d="M32 12.5596C31.1167 12.9512 30.1689 13.2168 29.1731 13.335C30.1899 12.7256 30.9683 11.7598 31.3372 10.6133C30.3833 11.1768 29.3306 11.5859 28.2087 11.8086C27.3103 10.8496 26.0325 10.2529 24.6152 10.2529C21.8962 10.2529 19.6917 12.457 19.6917 15.1748C19.6917 15.5605 19.7351 15.9365 19.8193 16.2969C15.728 16.0918 12.1001 14.1309 9.67212 11.1523C9.2478 11.8789 9.00635 12.7246 9.00635 13.627C9.00635 15.3359 9.87622 16.8428 11.1958 17.7246C10.3889 17.6973 9.63013 17.4756 8.96582 17.1064L8.96582 17.168C8.96582 19.5527 10.6636 21.543 12.9146 21.9961C12.5022 22.1064 12.0671 22.168 11.6172 22.168C11.2993 22.168 10.9919 22.1367 10.6904 22.0771C11.3174 24.0342 13.135 25.457 15.2886 25.4961C13.6045 26.8154 11.4807 27.6006 9.17432 27.6006C8.77686 27.6006 8.3855 27.5762 8 27.5322C10.1792 28.9316 12.7661 29.748 15.5466 29.748C24.6033 29.748 29.554 22.2461 29.554 15.7402L29.5374 15.1035C30.5049 14.4131 31.3416 13.5459 32 12.5596Z" />
  </symbol>

  <symbol id="social-gitlab" width="40.000000" height="40.000000" viewBox="0 0 40 40" xmlns="http://www.w3.org/2000/svg" xmlns:xlink="http://www.w3.org/1999/xlink">
	  <path d="M30.4229 17.917L30.3938 17.8428L27.5669 10.4648C27.5095 10.3203 27.4077 10.1982 27.2761 10.1152C27.1445 10.0332 26.991 9.99414 26.8362 10.002C26.6816 10.0107 26.5332 10.0664 26.4109 10.1611C26.2903 10.2598 26.2026 10.3926 26.1602 10.542L24.2515 16.3818L16.5227 16.3818L14.614 10.542C14.5725 10.3916 14.4849 10.2578 14.363 10.1602C14.241 10.0654 14.0925 10.0098 13.9377 10.001C13.7832 9.99316 13.6296 10.0322 13.498 10.1143C13.3667 10.1973 13.2649 10.3203 13.207 10.4639L10.375 17.8379L10.3467 17.9131C9.93994 18.9766 9.88965 20.1426 10.2036 21.2373C10.5178 22.3311 11.179 23.2939 12.0879 23.9795L12.0977 23.9873L12.1235 24.0059L16.4297 27.2305L18.5601 28.8428L19.8577 29.8223C20.0095 29.9375 20.1948 30 20.3855 30C20.5759 30 20.7612 29.9375 20.9131 29.8223L22.2109 28.8428L24.3411 27.2305L28.6733 23.9863L28.6841 23.9775C29.5908 23.292 30.2507 22.3301 30.5642 21.2373C30.8777 20.1445 30.8281 18.9795 30.4229 17.917Z" />
  </symbol>

  <symbol id="social-youtube" width="24.000015" height="17.000000" viewBox="0 0 24 17" xmlns="http://www.w3.org/2000/svg" xmlns:xlink="http://www.w3.org/1999/xlink">
	  <path d="M11.9998 0C11.9998 0 4.48746 0 2.60938 0.5C1.60115 0.780273 0.770996 1.62012 0.494232 2.66016C0 4.56055 0 8.5 0 8.5C0 8.5 0 12.46 0.494232 14.3398C0.770996 15.3799 1.58138 16.2002 2.60938 16.4805C4.50723 17 11.9998 17 11.9998 17C11.9998 17 19.5121 17 21.3901 16.5C22.4181 16.2197 23.2289 15.4004 23.5057 14.3604C23.9999 12.46 23.9999 8.51953 23.9999 8.51953C23.9999 8.51953 24.0197 4.56055 23.5057 2.66016C23.2289 1.62012 22.4181 0.799805 21.3901 0.519531C19.5121 0 11.9998 0 11.9998 0ZM9.60776 4.86035L15.8548 8.5L9.60776 12.1396L9.60776 4.86035Z"/>
  </symbol>

  <symbol id="social-vk" width="30.000000" height="16.666992" viewBox="0 0 30 16.667" xmlns="http://www.w3.org/2000/svg" xmlns:xlink="http://www.w3.org/1999/xlink">
	  <path d="M29.8409 15.0518C29.8046 14.9756 29.7707 14.9121 29.7392 14.8613C29.2188 13.9492 28.2241 12.8281 26.7559 11.5L26.7249 11.4697L26.7093 11.4551L26.6936 11.4395L26.6779 11.4395C26.0115 10.8213 25.5895 10.4053 25.4128 10.1924C25.0895 9.78613 25.0171 9.37598 25.1938 8.95996C25.3186 8.64551 25.7876 7.98242 26.5996 6.96777C27.0267 6.43066 27.3649 6 27.6147 5.6748C29.4164 3.34277 30.1974 1.85254 29.9578 1.20312L29.8647 1.05176C29.8022 0.960938 29.6408 0.876953 29.3808 0.800781C29.1202 0.724609 28.787 0.711914 28.3808 0.762695L23.8825 0.792969C23.8096 0.767578 23.7055 0.770508 23.57 0.800781C23.4346 0.831055 23.3668 0.84668 23.3668 0.84668L23.2885 0.884766L23.2264 0.930664C23.1743 0.960938 23.117 1.01367 23.0545 1.08984C22.9923 1.16602 22.9403 1.25488 22.8987 1.35645C22.4089 2.58301 21.8521 3.72363 21.2272 4.77832C20.8419 5.40723 20.488 5.95215 20.1649 6.41309C19.8421 6.87402 19.5714 7.21387 19.3529 7.43262C19.134 7.65039 18.9365 7.8252 18.7592 7.95703C18.5821 8.08887 18.4469 8.14453 18.3533 8.12402C18.2595 8.10352 18.1711 8.08398 18.0874 8.06348C17.9418 7.97168 17.8246 7.84766 17.7362 7.69043C17.6475 7.5332 17.5877 7.33594 17.5565 7.09766C17.5254 6.85938 17.507 6.6543 17.5018 6.48145C17.4969 6.30957 17.4992 6.06543 17.5097 5.75098C17.5206 5.43652 17.5254 5.22363 17.5254 5.1123C17.5254 4.72754 17.5331 4.30859 17.5486 3.85742C17.5644 3.40625 17.5771 3.04883 17.5878 2.78613C17.5984 2.52246 17.6033 2.24316 17.6033 1.94922C17.6033 1.65527 17.585 1.4248 17.5486 1.25684C17.5127 1.08984 17.4576 0.927734 17.385 0.770508C17.312 0.613281 17.2051 0.491211 17.0648 0.405273C16.9243 0.319336 16.7495 0.250977 16.5416 0.200195C15.9897 0.078125 15.2868 0.0126953 14.4327 0.00195312C12.496 -0.0185547 11.2515 0.103516 10.6996 0.367188C10.481 0.478516 10.2831 0.630859 10.1062 0.823242C9.91869 1.04688 9.89253 1.16797 10.0279 1.18848C10.6528 1.2793 11.0951 1.49805 11.3555 1.84277L11.4493 2.02539C11.5223 2.15723 11.5952 2.38965 11.6681 2.72461C11.7409 3.05957 11.7879 3.42969 11.8086 3.83496C11.8606 4.5752 11.8606 5.20898 11.8086 5.73633C11.7565 6.26367 11.7072 6.67383 11.6602 6.96777C11.6132 7.26172 11.543 7.5 11.4493 7.68262C11.3555 7.86523 11.2931 7.97656 11.2618 8.01758C11.2305 8.05762 11.2045 8.08301 11.1838 8.09277C11.0485 8.14355 10.9077 8.16992 10.762 8.16992C10.6161 8.16992 10.4392 8.09863 10.231 7.95605C10.0228 7.81445 9.80675 7.61914 9.58282 7.37109C9.3589 7.12207 9.10637 6.77539 8.82511 6.3291C8.54408 5.88281 8.25247 5.35547 7.95049 4.74707L7.70063 4.30566C7.54443 4.02246 7.33107 3.60938 7.06032 3.06641C6.7894 2.52441 6.54994 1.99902 6.34177 1.49219C6.25856 1.2793 6.13355 1.11719 5.96696 1.00586L5.88879 0.959961C5.83681 0.918945 5.75338 0.875977 5.63893 0.831055C5.52431 0.785156 5.40472 0.751953 5.27966 0.731445L0.999855 0.761719C0.562515 0.761719 0.265778 0.858398 0.109528 1.05078L0.0469971 1.14258C0.0157547 1.19336 0 1.27441 0 1.38574C0 1.49707 0.0312424 1.63477 0.0937729 1.79688C0.718544 3.22656 1.39797 4.60547 2.13205 5.93359C2.86613 7.26172 3.50404 8.33203 4.04538 9.14258C4.58683 9.95312 5.13873 10.7197 5.70108 11.4385C6.26343 12.1592 6.63567 12.6201 6.81779 12.8232C7.00014 13.0264 7.14336 13.1777 7.24747 13.2793L7.63804 13.6445C7.88795 13.8877 8.25494 14.1787 8.73917 14.5186C9.2235 14.8584 9.7597 15.1934 10.348 15.5225C10.9365 15.8525 11.621 16.1211 12.4021 16.3291C13.1831 16.5371 13.9432 16.6201 14.6826 16.5801L16.4789 16.5801C16.8432 16.5488 17.1192 16.4375 17.3068 16.2451L17.369 16.1689C17.4108 16.1084 17.4499 16.0146 17.486 15.8877C17.5225 15.7607 17.5407 15.6211 17.5407 15.4697C17.53 15.0342 17.5641 14.6406 17.642 14.291C17.7199 13.9414 17.8086 13.6777 17.9078 13.5C18.007 13.3232 18.119 13.1729 18.2435 13.0518C18.3684 12.9307 18.4573 12.8564 18.5095 12.8311C18.5614 12.8057 18.6028 12.7881 18.634 12.7783C18.884 12.6973 19.1781 12.7754 19.5168 13.0137C19.8553 13.252 20.1728 13.5459 20.4697 13.8965C20.7665 14.2461 21.1231 14.6387 21.5396 15.0742C21.9563 15.5107 22.3206 15.835 22.6329 16.0479L22.9452 16.2305C23.1537 16.3525 23.4245 16.4639 23.7578 16.5654C24.0905 16.667 24.382 16.6924 24.6322 16.6416L28.6307 16.5811C29.0262 16.5811 29.334 16.5166 29.5523 16.3906C29.771 16.2637 29.9009 16.124 29.9428 15.9717C29.9846 15.8203 29.9869 15.6475 29.9508 15.4551C29.9137 15.2627 29.8772 15.1279 29.8409 15.0518Z" />
  </symbol>

  <symbol id="social-linkedin" width="40.000000" height="40.000000" viewBox="0 0 40 40" xmlns="http://www.w3.org/2000/svg" xmlns:xlink="http://www.w3.org/1999/xlink">
	  <path d="M32 22.5938L32 31.4668L26.856 31.4668L26.856 23.1875C26.856 21.1084 26.1121 19.6885 24.25 19.6885C22.8286 19.6885 21.9829 20.6455 21.6106 21.5703C21.4751 21.9014 21.4402 22.3623 21.4402 22.8252L21.4402 31.4668L16.2944 31.4668C16.2944 31.4668 16.3638 17.4453 16.2944 15.9922L21.4397 15.9922L21.4397 18.1855C21.4292 18.2021 21.4155 18.2197 21.4058 18.2363L21.4397 18.2363L21.4397 18.1855C22.1233 17.1328 23.344 15.6289 26.0767 15.6289C29.4622 15.6289 32 17.8408 32 22.5938ZM10.9119 8.5332C9.15137 8.5332 8 9.6875 8 11.2061C8 12.6914 9.11816 13.8809 10.8435 13.8809L10.8779 13.8809C12.6724 13.8809 13.7883 12.6914 13.7883 11.2061C13.7544 9.6875 12.6724 8.5332 10.9119 8.5332ZM8.30566 31.4668L13.4495 31.4668L13.4495 15.9922L8.30566 15.9922L8.30566 31.4668Z" />
  </symbol>

  <symbol id="social-meta" width="40.000000" height="40.000000" viewBox="0 0 40 40" xmlns="http://www.w3.org/2000/svg" xmlns:xlink="http://www.w3.org/1999/xlink">
	  <path d="M26.4871 8.00488L23.3748 8C19.8782 8 17.6187 10.3184 17.6187 13.9062L17.6187 16.6299L14.4893 16.6299C14.219 16.6299 14 16.8486 14 17.1191L14 21.0654C14 21.335 14.2192 21.5547 14.4893 21.5547L17.6187 21.5547L17.6187 31.5107C17.6187 31.7812 17.8376 32 18.1079 32L22.1907 32C22.4612 32 22.6802 31.7812 22.6802 31.5107L22.6802 21.5547L26.3389 21.5547C26.6094 21.5547 26.8284 21.335 26.8284 21.0654L26.8298 17.1191C26.8298 16.9893 26.7781 16.8652 26.6865 16.7734C26.595 16.6816 26.47 16.6299 26.3401 16.6299L22.6802 16.6299L22.6802 14.3213C22.6802 13.2119 22.9446 12.6484 24.3899 12.6484L26.4866 12.6475C26.7566 12.6475 26.9756 12.4287 26.9756 12.1582L26.9756 8.49414C26.9756 8.22461 26.7568 8.00586 26.4871 8.00488Z" />
  </symbol>

  <symbol id="social-insta" width="40.000000" height="40.000000" viewBox="0 0 40 40" xmlns="http://www.w3.org/2000/svg" xmlns:xlink="http://www.w3.org/1999/xlink">
	  <path  d="M20 8C16.741 8 16.333 8.01367 15.053 8.07227C12.8748 8.17188 11.1802 8.82617 10.0049 10L10 10L10 10.0049C8.82715 11.1797 8.17285 12.873 8.073 15.0518C8.01392 16.333 8 16.7412 8 20C8 23.2588 8.01392 23.668 8.07202 24.9482C8.17188 27.126 8.82593 28.8203 10 29.9961L10 30L10.0039 30C11.1787 31.1738 12.8728 31.8281 15.052 31.9277C16.333 31.9863 16.741 32 20 32C23.259 32 23.668 31.9863 24.948 31.9277C27.1243 31.8281 28.8193 31.1738 29.9951 30L30 30L30 29.9951C31.1736 28.8203 31.8286 27.127 31.927 24.9482C31.9861 23.668 32 23.2588 32 20C32 16.7412 31.9861 16.333 31.928 15.0527C31.8301 12.876 31.1755 11.1807 30 10.0049L30 10L29.9956 10C28.8208 8.82715 27.1267 8.17285 24.949 8.07324C23.668 8.01367 23.259 8 20 8ZM24.9648 13.5957C24.9648 12.7998 25.6099 12.1553 26.4058 12.1553C27.2009 12.1553 27.8447 12.7998 27.8447 13.5957C27.8447 14.3906 27.2009 15.0352 26.4058 15.0352C25.6099 15.0352 24.9648 14.3906 24.9648 13.5957ZM20.0042 16C17.7913 16 16 17.793 16 20C16 22.207 17.7913 24 20.0042 24C22.2102 24 24 22.21 24 20C24 17.79 22.2102 16 20.0042 16ZM20.0042 14C16.6875 14 14 16.6875 14 20C14 23.3125 16.6875 26 20.0042 26C23.3167 26 26 23.3125 26 20C26 16.6875 23.3167 14 20.0042 14Z" fill-rule="evenodd"/>
  </symbol>
</svg>
